<svg xmlns="http://www.w3.org/2000/svg" xmlns:xlink="http://www.w3.org/1999/xlink" width="200" zoomAndPan="magnify" viewBox="0 0 150 149.999998" height="200" preserveAspectRatio="xMidYMid meet" version="1.0"><defs><g/><clipPath id="f2f2c6c7cc"><path d="M 66.328125 0 L 85.828125 0 L 85.828125 150 L 66.328125 150 Z M 66.328125 0 " clip-rule="nonzero"/></clipPath></defs><rect x="-15" width="180" fill="#ffffff" y="-15" height="179.999997" fill-opacity="1"/><rect x="-15" width="180" fill="#ffffff" y="-15" height="179.999997" fill-opacity="1"/><rect x="-15" width="180" fill="#ffffff" y="-15" height="179.999997" fill-opacity="1"/><g fill="#2b2b2b" fill-opacity="1"><g transform="translate(74.338665, 110.600004)"><g><path d="M 39.371094 0.542969 L 40.253906 0.542969 L 40.253906 -38.960938 C 40.253906 -44.539062 40.867188 -46.101562 42.976562 -46.714844 L 42.976562 -47.597656 L 34.40625 -47.597656 L 34.40625 -46.714844 C 37.46875 -45.898438 39.097656 -43.996094 39.097656 -36.242188 L 39.097656 -9.113281 L 9.382812 -47.597656 L 2.71875 -47.597656 L 2.71875 -46.714844 C 5.441406 -46.101562 6.253906 -44.539062 6.253906 -38.960938 L 6.253906 -8.636719 C 6.253906 -3.058594 5.574219 -1.496094 3.535156 -0.882812 L 3.535156 0 L 12.035156 0 L 12.035156 -0.882812 C 8.976562 -1.699219 7.34375 -3.605469 7.34375 -11.355469 L 7.34375 -41.140625 Z M 39.371094 0.542969 "/></g></g></g><g fill="#2b2b2b" fill-opacity="1"><g transform="translate(28.389259, 85.779159)"><g><path d="M -1.15625 0 L 6.527344 0 L 6.527344 -0.882812 C 4.214844 -1.359375 3.941406 -3.601562 5.710938 -8.023438 L 9.722656 -17.949219 L 28.894531 -17.949219 L 33.039062 -7.953125 C 35.214844 -2.855469 35.757812 -1.496094 33.652344 -0.882812 L 33.652344 0 L 44.1875 0 L 44.1875 -0.882812 C 42.761719 -1.496094 41.128906 -2.855469 39.023438 -7.953125 L 22.296875 -48.132812 L 17.199219 -45.820312 L 17.8125 -44.394531 C 18.355469 -43.304688 18.421875 -42.421875 17.949219 -41.199219 L 4.554688 -8.023438 C 2.449219 -2.855469 0.746094 -1.496094 -1.15625 -0.882812 Z M 10.128906 -18.96875 L 19.171875 -41.332031 L 28.484375 -18.96875 Z M 10.128906 -18.96875 "/></g></g></g><g clip-path="url(#f2f2c6c7cc)"><path fill="#ffffff" d="M 66.328125 -3.035156 L 85.828125 -3.035156 L 85.828125 152.964844 L 66.328125 152.964844 Z M 66.328125 -3.035156 " fill-opacity="1" fill-rule="nonzero"/></g><g fill="#2b2b2b" fill-opacity="1"><g transform="translate(73.999156, 49.617508)"><g><path d="M 0 -0.136719 L 0 0.777344 L 0.105469 0.777344 C 0.160156 0.503906 0.429688 0.46875 0.957031 0.679688 L 2.136719 1.160156 L 2.136719 3.441406 L 0.949219 3.9375 C 0.339844 4.195312 0.179688 4.261719 0.105469 4.007812 L 0 4.007812 L 0 5.265625 L 0.105469 5.265625 C 0.179688 5.09375 0.339844 4.902344 0.949219 4.648438 L 5.734375 2.65625 L 5.460938 2.050781 L 5.289062 2.121094 C 5.160156 2.1875 5.054688 2.195312 4.910156 2.136719 L 0.957031 0.542969 C 0.339844 0.292969 0.179688 0.0898438 0.105469 -0.136719 Z M 2.261719 1.207031 L 4.925781 2.285156 L 2.261719 3.394531 Z M 2.261719 1.207031 "/></g></g></g><g fill="#2b2b2b" fill-opacity="1"><g transform="translate(73.999156, 56.081729)"><g><path d="M 0 0.414062 L 0 4.179688 L 0.914062 4.234375 L 0.929688 4.148438 C 0.324219 3.863281 0.128906 3.507812 0.128906 2.730469 L 0.128906 1.765625 C 0.128906 1.53125 0.257812 1.402344 0.492188 1.402344 L 4.640625 1.402344 C 5.304688 1.402344 5.492188 1.472656 5.566406 1.726562 L 5.671875 1.726562 L 5.671875 0.414062 L 5.566406 0.414062 C 5.492188 0.65625 5.304688 0.738281 4.640625 0.738281 L 1.027344 0.738281 C 0.363281 0.738281 0.179688 0.65625 0.105469 0.414062 Z M 0 0.414062 "/></g></g></g><g fill="#2b2b2b" fill-opacity="1"><g transform="translate(73.999156, 61.752156)"><g><path d="M 0 0.414062 L 0 4.179688 L 0.914062 4.234375 L 0.929688 4.148438 C 0.324219 3.863281 0.128906 3.507812 0.128906 2.730469 L 0.128906 1.765625 C 0.128906 1.53125 0.257812 1.402344 0.492188 1.402344 L 4.640625 1.402344 C 5.304688 1.402344 5.492188 1.472656 5.566406 1.726562 L 5.671875 1.726562 L 5.671875 0.414062 L 5.566406 0.414062 C 5.492188 0.65625 5.304688 0.738281 4.640625 0.738281 L 1.027344 0.738281 C 0.363281 0.738281 0.179688 0.65625 0.105469 0.414062 Z M 0 0.414062 "/></g></g></g><g fill="#2b2b2b" fill-opacity="1"><g transform="translate(73.999156, 67.422583)"><g><path d="M 0 1.53125 L 0 2.851562 L 0.105469 2.851562 C 0.179688 2.601562 0.363281 2.527344 1.027344 2.527344 L 2.566406 2.527344 L 4.769531 3.765625 C 5.347656 4.089844 5.492188 4.339844 5.566406 4.558594 L 5.671875 4.558594 L 5.671875 3.597656 L 5.566406 3.597656 C 5.507812 3.902344 5.265625 3.894531 4.769531 3.621094 L 2.761719 2.488281 L 4.769531 1.359375 C 5.347656 1.035156 5.492188 0.941406 5.566406 1.183594 L 5.671875 1.183594 L 5.671875 -0.0976562 L 5.566406 -0.0976562 C 5.492188 0.0742188 5.347656 0.308594 4.769531 0.625 L 2.550781 1.847656 L 1.027344 1.847656 C 0.363281 1.855469 0.179688 1.773438 0.105469 1.53125 Z M 0 1.53125 "/></g></g></g><g fill="#2b2b2b" fill-opacity="1"><g transform="translate(73.999156, 76.122838)"><g><path d="M -0.0664062 4.691406 L -0.0664062 4.796875 L 4.640625 4.796875 C 5.304688 4.796875 5.492188 4.867188 5.566406 5.121094 L 5.671875 5.121094 L 5.671875 4.097656 L 5.566406 4.097656 C 5.46875 4.464844 5.242188 4.65625 4.316406 4.65625 L 1.085938 4.65625 L 5.671875 1.117188 L 5.671875 0.324219 L 5.566406 0.324219 C 5.492188 0.648438 5.304688 0.746094 4.640625 0.746094 L 1.027344 0.746094 C 0.363281 0.746094 0.179688 0.664062 0.105469 0.421875 L 0 0.421875 L 0 1.433594 L 0.105469 1.433594 C 0.203125 1.070312 0.429688 0.875 1.351562 0.875 L 4.902344 0.875 Z M -0.0664062 4.691406 "/></g></g></g><g fill="#2b2b2b" fill-opacity="1"><g transform="translate(73.999156, 82.838162)"><g><path d="M 0 -0.136719 L 0 0.777344 L 0.105469 0.777344 C 0.160156 0.503906 0.429688 0.46875 0.957031 0.679688 L 2.136719 1.160156 L 2.136719 3.441406 L 0.949219 3.9375 C 0.339844 4.195312 0.179688 4.261719 0.105469 4.007812 L 0 4.007812 L 0 5.265625 L 0.105469 5.265625 C 0.179688 5.09375 0.339844 4.902344 0.949219 4.648438 L 5.734375 2.65625 L 5.460938 2.050781 L 5.289062 2.121094 C 5.160156 2.1875 5.054688 2.195312 4.910156 2.136719 L 0.957031 0.542969 C 0.339844 0.292969 0.179688 0.0898438 0.105469 -0.136719 Z M 2.261719 1.207031 L 4.925781 2.285156 L 2.261719 3.394531 Z M 2.261719 1.207031 "/></g></g></g><g fill="#2b2b2b" fill-opacity="1"><g transform="translate(73.999156, 89.302384)"><g><path d="M -0.0820312 2.925781 C -0.0820312 4.050781 0.535156 4.941406 2.164062 4.941406 L 4.640625 4.941406 C 5.304688 4.941406 5.492188 5.023438 5.566406 5.265625 L 5.671875 5.265625 L 5.671875 4.261719 L 5.566406 4.261719 C 5.46875 4.617188 5.242188 4.8125 4.316406 4.8125 L 2.136719 4.8125 C 0.550781 4.8125 0.0898438 3.878906 0.0898438 3.183594 C 0.0898438 2.128906 0.632812 1.296875 2.136719 1.296875 L 4.640625 1.296875 C 5.304688 1.296875 5.492188 1.378906 5.566406 1.621094 L 5.671875 1.621094 L 5.671875 0.308594 L 5.566406 0.308594 C 5.492188 0.558594 5.304688 0.632812 4.640625 0.632812 L 2.089844 0.632812 C 0.460938 0.632812 -0.0820312 1.765625 -0.0820312 2.925781 Z M -0.0820312 2.925781 "/></g></g></g><g fill="#2b2b2b" fill-opacity="1"><g transform="translate(73.999156, 96.074407)"><g><path d="M -0.0820312 2.308594 C -0.0820312 3.265625 0.535156 4.203125 1.546875 4.203125 C 2.460938 4.203125 2.820312 3.363281 3.175781 2.460938 C 3.457031 1.773438 3.765625 0.941406 4.527344 0.941406 C 5.214844 0.941406 5.597656 1.5 5.597656 2.15625 C 5.597656 3.078125 5.09375 3.644531 4.390625 3.945312 L 4.414062 4.027344 L 5.355469 3.992188 C 5.523438 3.675781 5.726562 3.152344 5.726562 2.414062 C 5.726562 1.222656 5.128906 0.4375 4.179688 0.4375 C 3.320312 0.4375 2.980469 1.042969 2.601562 2 C 2.324219 2.679688 1.953125 3.675781 1.140625 3.675781 C 0.484375 3.675781 0.0664062 3.117188 0.0664062 2.46875 C 0.0664062 1.34375 0.785156 0.730469 1.636719 0.414062 L 1.621094 0.324219 L 0.492188 0.363281 C 0.21875 0.746094 -0.0820312 1.457031 -0.0820312 2.308594 Z M -0.0820312 2.308594 "/></g></g></g></svg>